<?xml version="1.0" encoding="utf-8"?>
<?xml-stylesheet type="text/xsl" href="rss1.xsl"?>
<rss version="2.0" xmlns:atom="http://www.w3.org/2005/Atom" xmlns:content="http://purl.org/rss/1.0/modules/content/" xmlns:dc="http://purl.org/dc/elements/1.1/" xmlns:media="http://search.yahoo.com/mrss/">
<channel>
 <title>Getty</title>
 <link>http://www.gettyimg.com/</link>
 <atom:link href="http://www.gettyimg.com/" rel="self" type="application/rss+xml" />

 
                <item>
                <title><![CDATA[【PRORES HD】Ava Max - Christmas Without You (Live) [ProRes 1080]]]></title>
                <link><![CDATA[https://sharemania.us/threads/ava-max-christmas-without-you-live-prores-1080.244806/]]></link>
                <description><![CDATA[<article>
<blockquote class="messageText SelectQuoteContainer ugc baseHtml">
<div style="text-align: center"><img src="https://i.ibb.co/6nXYCgN/Ava-Max-Christmas-Without-You-Live-VTM.gif" class="bbCodeImage LbImage" alt="[​IMG]" data-url="https://i.ibb.co/6nXYCgN/Ava-Max-Christmas-Without-You-Live-VTM.gif" style=""><br>
​</div>
<div class="ToggleTriggerAnchor bbCodeSpoilerContainer">
<button type="button" class="button bbCodeSpoilerButton ToggleTrigger Tooltip JsOnly" data-target="> .SpoilerTarget"><span>Spoiler: <span class="SpoilerTitle">ProRes</span></span></button>
<div class="SpoilerTarget bbCodeSpoilerText">
<div class="bbCodeBlock bbCodeCode">
<div class="type">Code:</div>
<pre>General
Complete name                            : Ava Max - Christmas Without You (Live).mp4
Format                                   : MPEG-4
Format profile                           : QuickTime
Codec ID                                 : qt   2005.03 (qt  )
File size                                : 2.36 GiB
Duration                                 : 2 min 56 s
Overall bit rate mode                    : Variable
Overall bit rate                         : 115 Mb/s
Frame rate                               : 23.976 FPS
Encoded date                             : 2021-01-01 22:39:06 UTC
Tagged date                              : 2020-12-22 22:39:57 UTC
Writing library                          : Apple QuickTime
TIM                                      : 00:00:00:00
TSC                                      : 24000
TSZ                                      : 1001

Video
ID                                       : 1
Format                                   : ProRes
Format version                           : Version 0
Format profile                           : 422
Codec ID                                 : apcn
Duration                                 : 2 min 56 s
Bit rate mode                            : Variable
Bit rate                                 : 113 Mb/s
Width                                    : 1 920 pixels
Height                                   : 1 080 pixels
Display aspect ratio                     : 16:9
Frame rate mode                          : Constant
Frame rate                               : 23.976 (24000/1001) FPS
Color space                              : YUV
Chroma subsampling                       : 4:2:2
Scan type                                : Progressive
Bits/(Pixel*Frame)                       : 2.279
Stream size                              : 2.33 GiB (99%)
Writing library                          : adb0
Language                                 : English
Encoded date                             : 2021-01-01 22:39:06 UTC
Tagged date                              : 2021-01-01 22:39:06 UTC
Color primaries                          : BT.709
Transfer characteristics                 : BT.709
Matrix coefficients                      : BT.709

Audio
ID                                       : 2
Format                                   : PCM
Format settings                          : Little / Signed
Codec ID                                 : sowt
Duration                                 : 2 min 56 s
Bit rate mode                            : Constant
Bit rate                                 : 1 536 kb/s
Channel(s)                               : 2 channels
Channel layout                           : L R
Sampling rate                            : 48.0 kHz
Bit depth                                : 16 bits
Stream size                              : 32.4 MiB (1%)
Language                                 : English
Encoded date                             : 2021-01-01 22:39:06 UTC
Tagged date                              : 2021-01-01 22:39:06 UTC

Other
ID                                       : 3
Type                                     : Time code
Format                                   : QuickTime TC
Duration                                 : 2 min 56 s
Frame rate                               : 23.976 (24000/1001) FPS
Time code of first frame                 : 00:00:00:00
Time code of last frame                  : 00:02:56:12
Time code, stripped                      : Yes
Language                                 : English
Encoded date                             : 2021-01-01 22:39:06 UTC
Tagged date                              : 2021-01-01 22:39:06 UTC

</pre>
</div><div style="text-align: center">​</div></div>
</div><div style="text-align: center"><br>
<div class="bbCodeBlock bbCodeVfcHH HiddenContent">
<div class="attribution type">Hidden Content:</div>
<blockquote>You must reply before you can see the hidden data contained here.</blockquote>
</div></div>
<div class="messageTextEndMarker">&nbsp;</div>
</blockquote>
</article>]]></description>
                <author><![CDATA[fstambuk]]></author>
                </item>

                
                <item>
                <title><![CDATA[【Albums (lossy)】Dolby Atmos - Van Morrison - Moondance [E-AC3-JOC | 16bits/48kHz | 5.1 | 768kbits]]]></title>
                <link><![CDATA[https://sharemania.us/threads/van-morrison-moondance-e-ac3-joc-16bits-48khz-5-1-768kbits.244808/]]></link>
                <description><![CDATA[<article>
<blockquote class="messageText SelectQuoteContainer ugc baseHtml">
<img src="https://a5.mzstatic.com/us/r1000/0/Music125/v4/9a/c7/e2/9ac7e266-1f0d-997a-fe43-6741bc96eda6/081227963637.jpg" class="bbCodeImage LbImage" alt="[​IMG]" data-url="https://a5.mzstatic.com/us/r1000/0/Music125/v4/9a/c7/e2/9ac7e266-1f0d-997a-fe43-6741bc96eda6/081227963637.jpg" style=""> <br>
<br>
<span style="font-family: 'Book Antiqua'"><b><b>Artist</b>: </b>Van Morrison<br>
<b><b>Album</b>: </b>Moondance <br>
<b><b>Release</b>: </b>27/01/1970<br>
<b><b>Format</b>: .</b>m4a Enhanced AC-3 with Joint Object Coding<br>
<b><b>Sample Rate</b>: </b>768 Kbps, 48.000 kHz - 5.1 Surround Sound<br>
<b><b>Quality</b>: </b>High Quality, Lossy Audio, Apple Core Media Audio</span><br>
<b><span style="font-family: 'Book Antiqua'"><b>Source</b>: <a href="https://music.apple.com/fr/album/moondance/712727450" target="_blank" class="externalLink" rel="nofollow">Apple Music</a></span></b><br>
<br>
<div class="bbCodeBlock bbCodeVfcHH HiddenContent">
<div class="attribution type">Hidden Content:</div>
<blockquote>You must reply before you can see the hidden data contained here.</blockquote>
</div>
<div class="messageTextEndMarker">&nbsp;</div>
</blockquote>
</article>]]></description>
                <author><![CDATA[SonMaxime]]></author>
                </item>

                
                <item>
                <title><![CDATA[【Requests】[REQ AUD] - SHAZNAY LEWIS PAGES DELUXE DIGITAL]]></title>
                <link><![CDATA[https://sharemania.us/threads/shaznay-lewis-pages-deluxe-digital.244807/]]></link>
                <description><![CDATA[<article>
<blockquote class="messageText SelectQuoteContainer ugc baseHtml">
13. NEVER EVER (REIMAGINED) 4:48 <br>
14. PURE SHORES (REIMAGINED) 5:12<br>
<br>
<br>
anyone?<br>
thanks in advance
<div class="messageTextEndMarker">&nbsp;</div>
</blockquote>
</article>]]></description>
                <author><![CDATA[mrmarrero]]></author>
                </item>

                </channel></rss>